<?xml version="1.0" encoding="utf-8"?>
<!-- Generator: Adobe Illustrator 25.1.0, SVG Export Plug-In . SVG Version: 6.00 Build 0)  -->
<svg version="1.1" id="Layer_1" xmlns="http://www.w3.org/2000/svg" xmlns:xlink="http://www.w3.org/1999/xlink" x="0px" y="0px"
	 viewBox="0 0 50 50" style="enable-background:new 0 0 50 50;" xml:space="preserve">
<style type="text/css">
	.st0{fill:#EEEEEE;}
	.st1{fill:#333333;}
	.st2{fill:#FFFFFF;}
	.st3{fill:#104397;}
</style>
<circle class="st0" cx="20.7" cy="22.1" r="17.5"/>
<path class="st1" d="M46.1,48.9h-43c-0.5,0-0.9-0.4-0.9-0.9c0-0.5,0.4-0.9,0.9-0.9h43c0.5,0,0.9,0.4,0.9,0.9
	C47,48.5,46.6,48.9,46.1,48.9z"/>
<rect x="30.8" y="28.6" class="st2" width="10.5" height="19.4"/>
<path class="st1" d="M41.3,48.9H30.8c-0.5,0-0.9-0.4-0.9-0.9V28.6c0-0.5,0.4-0.9,0.9-0.9h10.5c0.5,0,0.9,0.4,0.9,0.9V48
	C42.2,48.5,41.8,48.9,41.3,48.9z M31.7,47.1h8.8V29.4h-8.8V47.1z"/>
<path class="st2" d="M40,5.9c0,2.5-1.8,4.6-4,4.6c-2.2,0-4-2.1-4-4.6c0-2.5,1.8-4.6,4-4.6C38.3,1.4,40,3.4,40,5.9z"/>
<path class="st1" d="M36.1,11.4c-2.7,0-4.8-2.4-4.8-5.5c0-3,2.2-5.5,4.8-5.5c2.7,0,4.8,2.4,4.8,5.5C40.9,8.9,38.7,11.4,36.1,11.4z
	 M36.1,2.2c-1.7,0-3.1,1.7-3.1,3.7c0,2,1.4,3.7,3.1,3.7c1.7,0,3.1-1.7,3.1-3.7C39.2,3.9,37.8,2.2,36.1,2.2z"/>
<path class="st1" d="M36.1,1.4c-2.2,0-3.9,2-4,4.5c0.9-0.3,1.7-1,2.1-1.9c0.4,0.4,1,0.6,1.6,0.6h4C39.3,2.7,37.8,1.4,36.1,1.4z"/>
<path class="st1" d="M35.3,6.1c0-0.3-0.2-0.5-0.5-0.5c-0.3,0-0.5,0.2-0.5,0.5c0,0.3,0.2,0.5,0.5,0.5C35.1,6.6,35.3,6.4,35.3,6.1z"/>
<path class="st1" d="M37.8,6.1c0-0.3-0.2-0.5-0.5-0.5c-0.3,0-0.5,0.2-0.5,0.5c0,0.3,0.2,0.5,0.5,0.5C37.6,6.6,37.8,6.4,37.8,6.1z"/>
<path class="st1" d="M36.1,8.5C36.1,8.5,36.1,8.5,36.1,8.5c-0.5,0-1-0.2-1.4-0.6c-0.2-0.2-0.2-0.5,0-0.7c0.2-0.2,0.5-0.2,0.7,0
	c0.2,0.2,0.4,0.3,0.7,0.3h0c0.3,0,0.5-0.1,0.7-0.3c0.2-0.2,0.5-0.2,0.7,0c0.2,0.2,0.2,0.5,0,0.7C37.1,8.3,36.6,8.5,36.1,8.5z"/>
<path class="st1" d="M39.7,11.6h-1.5l-2.2,4.9l-2.2-4.9h-1.5c-2.7,0-4.9,2.2-4.9,4.9v12.9h17.2V16.5C44.7,13.8,42.5,11.6,39.7,11.6z
	"/>
<path class="st1" d="M44.7,30.3H27.5c-0.5,0-0.9-0.4-0.9-0.9V16.5c0-3.2,2.6-5.8,5.8-5.8h1.5c0.3,0,0.7,0.2,0.8,0.5l1.4,3.1l1.4-3.1
	c0.1-0.3,0.5-0.5,0.8-0.5h1.5c3.2,0,5.8,2.6,5.8,5.8v12.9C45.6,29.9,45.2,30.3,44.7,30.3z M28.3,28.6h15.5v-12
	c0-2.2-1.8-4.1-4.1-4.1h-0.9l-1.9,4.4c-0.1,0.3-0.5,0.5-0.8,0.5l0,0c-0.3,0-0.7-0.2-0.8-0.5l-1.9-4.4h-0.9c-2.2,0-4.1,1.8-4.1,4.1
	V28.6z"/>
<path class="st1" d="M36.1,17.4L36.1,17.4c-0.3,0-0.7-0.2-0.8-0.5L33.1,12c-0.1-0.3-0.1-0.6,0.1-0.8c0.2-0.2,0.4-0.4,0.7-0.4h4.3
	c0.3,0,0.6,0.1,0.7,0.4c0.2,0.2,0.2,0.6,0.1,0.8l-2.2,4.9C36.7,17.2,36.4,17.4,36.1,17.4z M35.2,12.5l0.8,1.9l0.8-1.9H35.2z"/>
<path class="st1" d="M36.1,48.9c-0.5,0-0.9-0.4-0.9-0.9V32.7c0-0.5,0.4-0.9,0.9-0.9s0.9,0.4,0.9,0.9V48
	C36.9,48.5,36.6,48.9,36.1,48.9z"/>
<path class="st3" d="M21.4,22.3c-5.6-2.4-11.2,2.4-16.8,0c0-4,0-8,0-11.9c5.6,2.4,11.2-2.4,16.8,0C21.4,14.3,21.4,18.3,21.4,22.3z"
	/>
<path class="st3" d="M8.1,23.8c-1.4,0-2.7-0.2-3.8-0.8c-0.3-0.1-0.5-0.4-0.5-0.7V10.4c0-0.3,0.1-0.5,0.3-0.6
	c0.2-0.1,0.5-0.2,0.7-0.1c1,0.4,2.1,0.6,3.2,0.6c1.5,0,3.1-0.3,4.7-0.7c1.6-0.3,3.3-0.7,5-0.7c1.4,0,2.7,0.2,3.8,0.8
	c0.3,0.1,0.5,0.4,0.5,0.7v11.9c0,0.3-0.1,0.5-0.3,0.6c-0.2,0.1-0.5,0.2-0.7,0.1c-1-0.4-2.1-0.6-3.2-0.6c-1.5,0-3.1,0.3-4.7,0.7
	C11.5,23.4,9.8,23.8,8.1,23.8z M5.3,21.8c0.9,0.3,1.8,0.5,2.8,0.5c1.5,0,3.1-0.3,4.7-0.7c1.6-0.3,3.3-0.7,5-0.7c1,0,1.9,0.1,2.8,0.4
	V10.9c-0.9-0.3-1.8-0.5-2.8-0.5c-1.5,0-3.1,0.3-4.7,0.7c-1.6,0.3-3.3,0.7-5,0.7c-1,0-1.9-0.1-2.8-0.4V21.8z"/>
<path class="st1" d="M21.4,48.9c-0.5,0-0.9-0.4-0.9-0.9V9.1c0-0.5,0.4-0.9,0.9-0.9s0.9,0.4,0.9,0.9V48
	C22.2,48.5,21.8,48.9,21.4,48.9z"/>
</svg>
