<?xml version="1.0" encoding="utf-8"?>
<!-- Generator: Adobe Illustrator 25.1.0, SVG Export Plug-In . SVG Version: 6.00 Build 0)  -->
<svg version="1.1" id="Layer_1" xmlns="http://www.w3.org/2000/svg" xmlns:xlink="http://www.w3.org/1999/xlink" x="0px" y="0px"
	 viewBox="0 0 50 50" style="enable-background:new 0 0 50 50;" xml:space="preserve">
<style type="text/css">
	.st0{fill:#EEEEEE;}
	.st1{fill:#FFFFFF;}
	.st2{fill:#333333;}
	.st3{fill:#104397;}
</style>
<path class="st0" d="M46,24c0-11.3-9.1-20.4-20.4-20.4C14.3,3.6,5.2,12.7,5.2,24c0,11.3,9.1,20.4,20.4,20.4C36.8,44.4,46,35.3,46,24
	z"/>
<path class="st1" d="M25.8,16.9L21,15.5c0,0-0.3-1.7,2.2-2.2l6.1-0.2c0,0,2.7-0.7,3.6,1.6L25.8,16.9z"/>
<path class="st2" d="M25.8,17.7c-0.1,0-0.2,0-0.2,0l-4.8-1.4c-0.3-0.1-0.6-0.4-0.6-0.7c0-0.1-0.1-1,0.5-1.8c0.5-0.7,1.3-1.1,2.4-1.3
	c0,0,0.1,0,0.1,0l6-0.2c0.2,0,0.5-0.1,1-0.1c1.7,0,3,0.8,3.5,2.3c0.1,0.2,0.1,0.5,0,0.7c-0.1,0.2-0.3,0.4-0.5,0.4l-7,2.2
	C26,17.7,25.9,17.7,25.8,17.7z M22,14.9l3.8,1.1l5.6-1.7c-0.3-0.2-0.7-0.4-1.3-0.4c-0.4,0-0.7,0.1-0.7,0.1c-0.1,0-0.1,0-0.2,0
	l-6,0.2C22.5,14.3,22.2,14.6,22,14.9z"/>
<path class="st1" d="M28.2,17.7l-0.4-0.1l-14.1,7.7l-1.4,2.4l13,7.1c2.5,1.3,4.9,0.3,4.9,0.3l11.4,8.1V30.1L28.2,17.7z"/>
<path class="st2" d="M41.6,44c-0.2,0-0.4-0.1-0.5-0.2l-11-7.8c-0.4,0.1-1.1,0.3-2,0.3c-1.1,0-2.2-0.3-3.2-0.7l-13-7.1
	c-0.2-0.1-0.4-0.3-0.4-0.5c-0.1-0.2,0-0.5,0.1-0.7l1.4-2.4c0.1-0.1,0.2-0.2,0.3-0.3l14.1-7.7c0.2-0.1,0.5-0.1,0.7-0.1l0.4,0.1
	c0.1,0,0.2,0.1,0.3,0.2l13.4,12.4c0.2,0.2,0.3,0.4,0.3,0.6v13.1c0,0.3-0.2,0.6-0.5,0.8C41.9,44,41.7,44,41.6,44z M30.2,34.2
	c0.2,0,0.4,0.1,0.5,0.2l10,7.1v-11L27.8,18.5l-13.5,7.4l-0.8,1.4L25.7,34c0.7,0.4,1.5,0.5,2.4,0.5c1.1,0,1.8-0.3,1.8-0.3
	C30,34.2,30.1,34.2,30.2,34.2z"/>
<path class="st1" d="M40.3,25.3c-0.3-0.9-1.2-1.4-2.1-1.2c0.8-0.4,1.2-1.4,0.9-2.2c-0.3-0.9-1.2-1.4-2.1-1.2
	c0.8-0.4,1.2-1.4,0.9-2.2c-0.3-0.9-1.2-1.4-2.1-1.2c0.8-0.4,1.2-1.4,0.9-2.2c-0.3-1-1.4-1.5-2.4-1.1l-2.8,1l0,0l-5.4,1.8l-6.4-1.3
	l-6,10.4l1.5-0.9l-5.6,5.2v13.1l11.4-8.1c0,0,2.5,1,4.9-0.3l12.3-6.7l1-0.4C40.2,27.3,40.7,26.3,40.3,25.3z"/>
<path class="st2" d="M9.5,44c-0.1,0-0.3,0-0.4-0.1c-0.3-0.1-0.5-0.4-0.5-0.8V30.1c0-0.2,0.1-0.5,0.3-0.6l3.9-3.6
	c0-0.2,0-0.4,0.1-0.6l6-10.4c0.2-0.3,0.6-0.5,0.9-0.4l6.2,1.3l5.2-1.7c0,0,0.1,0,0.1,0l2.7-1c0.3-0.1,0.6-0.2,0.9-0.2
	c1.1,0,2.2,0.7,2.5,1.8c0.2,0.7,0.2,1.3-0.1,2c0.6,0.3,1.1,0.8,1.3,1.5c0.2,0.7,0.2,1.3-0.1,2c0.6,0.3,1.1,0.8,1.3,1.5
	c0.2,0.7,0.2,1.3-0.1,2c0.6,0.3,1.1,0.8,1.3,1.5c0.2,0.7,0.2,1.4-0.1,2.1c-0.3,0.7-0.9,1.1-1.5,1.4l-1,0.4l-12.3,6.7
	c-1,0.5-2,0.8-3.2,0.8l0,0c-0.8,0-1.6-0.1-2-0.3l-11,7.8C9.9,44,9.7,44,9.5,44z M10.4,30.5v11l10-7.1c0.2-0.2,0.5-0.2,0.8-0.1
	c0,0,0.8,0.3,1.8,0.3l0,0c0.9,0,1.7-0.2,2.4-0.6l12.3-6.7c0,0,0.1,0,0.1-0.1l1-0.4c0.2-0.1,0.4-0.3,0.6-0.5c0.1-0.2,0.1-0.5,0-0.8
	c-0.2-0.4-0.6-0.7-1.1-0.6c-0.4,0.1-0.8-0.2-1-0.6c-0.1-0.4,0-0.8,0.4-1c0.4-0.2,0.6-0.7,0.5-1.2c-0.2-0.4-0.6-0.7-1.1-0.6
	c-0.4,0.1-0.8-0.2-1-0.6c-0.1-0.4,0-0.8,0.4-1c0.4-0.2,0.6-0.7,0.5-1.2c-0.2-0.4-0.6-0.7-1.1-0.6c-0.4,0.1-0.8-0.2-1-0.6
	c-0.1-0.4,0-0.8,0.4-1c0.4-0.2,0.6-0.7,0.5-1.2c-0.2-0.5-0.8-0.8-1.3-0.6l-2.8,1c-0.1,0-0.1,0-0.2,0l-5.2,1.7c-0.1,0-0.3,0.1-0.4,0
	l-5.8-1.2l-4.5,7.8c0.1,0.1,0.2,0.1,0.3,0.2c0.3,0.4,0.2,0.8-0.1,1.1L10.4,30.5z"/>
<path class="st1" d="M21.6,17.5c-0.3,1-1.4,1.5-2.4,1.1l-3.6-1.3c-1-0.3-1.5-1.4-1.1-2.4l0,0c0.3-1,1.4-1.5,2.4-1.1l3.6,1.3
	C21.5,15.5,22,16.6,21.6,17.5L21.6,17.5z"/>
<path class="st2" d="M19.9,19.6c-0.3,0-0.6-0.1-0.9-0.2l-3.6-1.3c-0.7-0.2-1.2-0.7-1.5-1.4c-0.3-0.7-0.3-1.4-0.1-2.1
	c0.4-1.1,1.4-1.8,2.5-1.8c0.3,0,0.6,0.1,0.9,0.2l3.6,1.3c0.7,0.2,1.2,0.7,1.5,1.4c0.3,0.7,0.3,1.4,0.1,2.1
	C22.1,18.9,21,19.6,19.9,19.6z M16.4,14.7c-0.4,0-0.8,0.3-0.9,0.7c-0.1,0.2-0.1,0.5,0,0.8c0.1,0.2,0.3,0.4,0.6,0.5l3.6,1.3
	c0.5,0.2,1.1-0.1,1.3-0.6c0.1-0.2,0.1-0.5,0-0.8c-0.1-0.2-0.3-0.4-0.6-0.5l-3.6-1.3C16.6,14.7,16.5,14.7,16.4,14.7z"/>
<path class="st1" d="M20.4,21c-0.3,1-1.4,1.5-2.4,1.1l-3.6-1.3c-1-0.3-1.5-1.4-1.1-2.4l0,0c0.3-1,1.4-1.5,2.4-1.1l3.6,1.3
	C20.3,19,20.8,20,20.4,21L20.4,21z"/>
<path class="st2" d="M18.7,23.1c-0.3,0-0.6-0.1-0.9-0.2l-3.6-1.3c-0.7-0.2-1.2-0.7-1.5-1.4c-0.3-0.7-0.3-1.4-0.1-2.1
	c0.4-1.1,1.4-1.8,2.5-1.8c0.3,0,0.6,0.1,0.9,0.2l3.6,1.3c0.7,0.2,1.2,0.7,1.5,1.4c0.3,0.7,0.3,1.4,0.1,2.1
	C20.8,22.3,19.8,23.1,18.7,23.1z M15.1,18.1c-0.4,0-0.8,0.3-0.9,0.7c-0.1,0.2-0.1,0.5,0,0.8c0.1,0.2,0.3,0.4,0.6,0.5l3.6,1.3
	c0.5,0.2,1.1-0.1,1.3-0.6c0.1-0.2,0.1-0.5,0-0.8c-0.1-0.2-0.3-0.4-0.6-0.5l-3.6-1.3C15.3,18.1,15.2,18.1,15.1,18.1z"/>
<path class="st1" d="M19.2,24.4c-0.3,1-1.4,1.5-2.4,1.1l-3.6-1.3c-1-0.3-1.5-1.4-1.1-2.4l0,0c0.3-1,1.4-1.5,2.4-1.1l3.6,1.3
	C19,22.4,19.5,23.4,19.2,24.4L19.2,24.4z"/>
<path class="st2" d="M17.5,26.5c-0.3,0-0.6-0.1-0.9-0.2L13,25.1c-0.7-0.2-1.2-0.7-1.5-1.4c-0.3-0.7-0.3-1.4-0.1-2.1
	c0.4-1.1,1.4-1.8,2.5-1.8c0.3,0,0.6,0.1,0.9,0.2l3.6,1.3c1.4,0.5,2.1,2.1,1.6,3.5C19.6,25.8,18.6,26.5,17.5,26.5z M13.9,21.5
	c-0.4,0-0.8,0.3-0.9,0.7c-0.1,0.2-0.1,0.5,0,0.8c0.1,0.2,0.3,0.4,0.6,0.5l3.6,1.3c0.5,0.2,1.1-0.1,1.3-0.6c0.2-0.5-0.1-1.1-0.6-1.3
	l-3.6-1.3C14.1,21.5,14,21.5,13.9,21.5z"/>
<path class="st1" d="M18,27.8c-0.3,1-1.4,1.5-2.4,1.1l-3.6-1.3c-1-0.3-1.5-1.4-1.1-2.4l0,0c0.3-1,1.4-1.5,2.4-1.1l3.6,1.3
	C17.8,25.8,18.3,26.9,18,27.8L18,27.8z"/>
<path class="st2" d="M16.2,29.9c-0.3,0-0.6-0.1-0.9-0.2l-3.6-1.3c-0.7-0.2-1.2-0.7-1.5-1.4c-0.3-0.7-0.3-1.4-0.1-2.1
	c0.4-1.1,1.4-1.8,2.5-1.8c0.3,0,0.6,0.1,0.9,0.2l3.6,1.3c0.7,0.2,1.2,0.7,1.5,1.4c0.3,0.7,0.3,1.4,0.1,2.1
	C18.4,29.2,17.4,29.9,16.2,29.9z M12.7,25c-0.4,0-0.8,0.3-0.9,0.7c-0.1,0.2-0.1,0.5,0,0.8c0.1,0.2,0.3,0.4,0.6,0.5l3.6,1.3
	c0.5,0.2,1.1-0.1,1.3-0.6c0.1-0.2,0.1-0.5,0-0.8c-0.1-0.2-0.3-0.4-0.6-0.5L13,25C12.9,25,12.8,25,12.7,25z"/>
<polygon class="st3" points="10.3,43.9 5.7,48.1 5.7,32.9 10.3,28.6 "/>
<path class="st3" d="M5.7,49c-0.1,0-0.2,0-0.3-0.1c-0.3-0.1-0.5-0.4-0.5-0.8V32.9c0-0.2,0.1-0.5,0.3-0.6L9.7,28
	c0.3-0.2,0.6-0.3,0.9-0.2c0.3,0.1,0.5,0.4,0.5,0.8v15.3c0,0.2-0.1,0.5-0.3,0.6l-4.6,4.2C6.1,48.9,5.9,49,5.7,49z M6.5,33.2v12.9
	l2.9-2.6V30.6L6.5,33.2z"/>
<polygon class="st3" points="40.9,43.9 45.5,48.1 45.5,32.9 40.9,28.6 "/>
<path class="st3" d="M45.5,49c-0.2,0-0.4-0.1-0.6-0.2l-4.6-4.2c-0.2-0.2-0.3-0.4-0.3-0.6V28.6c0-0.3,0.2-0.7,0.5-0.8
	c0.3-0.1,0.7-0.1,0.9,0.2l4.6,4.2c0.2,0.2,0.3,0.4,0.3,0.6v15.3c0,0.3-0.2,0.7-0.5,0.8C45.7,49,45.6,49,45.5,49z M41.7,43.5l2.9,2.6
	V33.2l-2.9-2.6V43.5z"/>
<path class="st3" d="M25.6,8c-0.5,0-0.9-0.4-0.9-0.9v-5c0-0.5,0.4-0.9,0.9-0.9c0.5,0,0.9,0.4,0.9,0.9v5C26.4,7.6,26,8,25.6,8z"/>
<path class="st3" d="M17.1,11.5c-0.2,0-0.4-0.1-0.6-0.3L13,7.7c-0.3-0.3-0.3-0.9,0-1.2c0.3-0.3,0.9-0.3,1.2,0l3.5,3.5
	c0.3,0.3,0.3,0.9,0,1.2C17.6,11.4,17.4,11.5,17.1,11.5z"/>
<path class="st3" d="M34,11.5c-0.2,0-0.4-0.1-0.6-0.3c-0.3-0.3-0.3-0.9,0-1.2l3.5-3.5c0.3-0.3,0.9-0.3,1.2,0c0.3,0.3,0.3,0.9,0,1.2
	l-3.5,3.5C34.4,11.4,34.2,11.5,34,11.5z"/>
</svg>
