<?xml version="1.0" encoding="utf-8"?>
<!-- Generator: Adobe Illustrator 25.1.0, SVG Export Plug-In . SVG Version: 6.00 Build 0)  -->
<svg version="1.1" id="Layer_1" xmlns="http://www.w3.org/2000/svg" xmlns:xlink="http://www.w3.org/1999/xlink" x="0px" y="0px"
	 viewBox="0 0 50 50" style="enable-background:new 0 0 50 50;" xml:space="preserve">
<style type="text/css">
	.st0{fill:#FFFFFF;}
	.st1{fill:#333333;}
	.st2{fill:#104397;}
</style>
<rect x="20.2" y="28.8" class="st0" width="8.7" height="16"/>
<path class="st1" d="M28.9,45.7h-8.7c-0.5,0-0.9-0.4-0.9-0.9v-16c0-0.5,0.4-0.9,0.9-0.9h8.7c0.5,0,0.9,0.4,0.9,0.9v16
	C29.7,45.4,29.3,45.7,28.9,45.7z M21,44h7V29.7h-7V44z"/>
<path class="st0" d="M27.8,10.2c0,2.1-1.5,3.8-3.3,3.8s-3.3-1.7-3.3-3.8s1.5-3.8,3.3-3.8C26.3,6.4,27.8,8.1,27.8,10.2z"/>
<path class="st1" d="M24.5,14.8c-2.3,0-4.1-2.1-4.1-4.6c0-2.6,1.9-4.6,4.1-4.6s4.1,2.1,4.1,4.6C28.7,12.7,26.8,14.8,24.5,14.8z
	 M24.5,7.2c-1.3,0-2.4,1.3-2.4,2.9s1.1,2.9,2.4,2.9s2.4-1.3,2.4-2.9C26.9,8.6,25.9,7.2,24.5,7.2z"/>
<path class="st1" d="M24.5,6.4c-1.8,0-3.2,1.6-3.3,3.7C22,9.8,22.6,9.3,23,8.5C23.4,8.8,23.8,9,24.4,9h3.3C27.2,7.5,26,6.4,24.5,6.4
	z"/>
<path class="st1" d="M23.9,10.3c0-0.2-0.2-0.4-0.4-0.4c-0.2,0-0.4,0.2-0.4,0.4s0.2,0.4,0.4,0.4C23.7,10.7,23.9,10.5,23.9,10.3z"/>
<path class="st1" d="M26,10.3c0-0.2-0.2-0.4-0.4-0.4c-0.2,0-0.4,0.2-0.4,0.4s0.2,0.4,0.4,0.4S26,10.5,26,10.3z"/>
<path class="st1" d="M24.5,12.4c-0.5,0-0.9-0.2-1.2-0.5c-0.2-0.2-0.2-0.5,0-0.7s0.5-0.2,0.7,0c0.3,0.3,0.7,0.3,1,0
	c0.2-0.2,0.5-0.2,0.7,0s0.2,0.5,0,0.7C25.4,12.2,25,12.4,24.5,12.4z"/>
<path class="st1" d="M27.6,14.9h-1.2l-1.8,4l-1.8-4h-1.2c-2.2,0-4.1,1.8-4.1,4.1v10.7h14.2V18.9C31.6,16.7,29.8,14.9,27.6,14.9z"/>
<path class="st1" d="M31.6,30.4H17.4c-0.5,0-0.9-0.4-0.9-0.9V18.9c0-2.7,2.2-4.9,4.9-4.9h1.2c0.3,0,0.6,0.2,0.8,0.5l1,2.3l1-2.3
	c0.1-0.3,0.4-0.5,0.8-0.5h1.2c2.7,0,4.9,2.2,4.9,4.9v10.7C32.5,30.1,32.1,30.4,31.6,30.4z M18.3,28.7h12.5v-9.8
	c0-1.8-1.4-3.2-3.2-3.2h-0.7l-1.6,3.5c-0.1,0.3-0.4,0.5-0.8,0.5l0,0c-0.3,0-0.6-0.2-0.8-0.5l-1.6-3.5h-0.7c-1.8,0-3.2,1.4-3.2,3.2
	v9.8H18.3z"/>
<path class="st1" d="M24.5,19.7L24.5,19.7c-0.3,0-0.6-0.2-0.8-0.5l-1.8-4c-0.1-0.3-0.1-0.6,0.1-0.8s0.4-0.4,0.7-0.4h3.6
	c0.3,0,0.6,0.1,0.7,0.4c0.2,0.2,0.2,0.6,0.1,0.8l-1.8,4C25.2,19.5,24.9,19.7,24.5,19.7z M24.1,15.7l0.5,1l0.5-1
	C25.1,15.7,24.1,15.7,24.1,15.7z"/>
<path class="st1" d="M24.5,45.7c-0.5,0-0.9-0.4-0.9-0.9V32.2c0-0.5,0.4-0.9,0.9-0.9s0.9,0.4,0.9,0.9v12.7
	C25.4,45.4,25,45.7,24.5,45.7z"/>
<rect x="4" y="28.5" class="st0" width="7.7" height="14.2"/>
<path class="st1" d="M11.7,43.5H4c-0.5,0-0.9-0.4-0.9-0.9V28.5c0-0.5,0.4-0.9,0.9-0.9h7.7c0.5,0,0.9,0.4,0.9,0.9v14.2
	C12.5,43.1,12.2,43.5,11.7,43.5z M4.9,41.8h6V29.3h-6C4.9,29.3,4.9,41.8,4.9,41.8z"/>
<path class="st0" d="M10.7,12c0,1.8-1.3,3.3-2.9,3.3C6.3,15.3,5,13.8,5,12s1.3-3.3,2.9-3.3C9.5,8.6,10.7,10.1,10.7,12z"/>
<path class="st1" d="M7.9,16.2c-2.1,0-3.8-1.9-3.8-4.2s1.7-4.2,3.8-4.2s3.8,1.9,3.8,4.2C11.6,14.3,9.9,16.2,7.9,16.2z M7.9,9.5
	c-1.1,0-2,1.1-2,2.5s0.9,2.5,2,2.5s2-1.1,2-2.5S9,9.5,7.9,9.5z"/>
<path class="st1" d="M7.9,8.6C6.3,8.6,5,10.1,5,11.9c0.7-0.2,1.2-0.7,1.6-1.4c0.3,0.3,0.7,0.4,1.2,0.4h2.9C10.2,9.6,9.1,8.6,7.9,8.6
	z"/>
<path class="st1" d="M7.3,12.1c0-0.2-0.2-0.4-0.4-0.4c-0.2,0-0.4,0.2-0.4,0.4s0.2,0.4,0.4,0.4C7.2,12.5,7.3,12.3,7.3,12.1z"/>
<path class="st1" d="M9.1,12.1c0-0.2-0.2-0.4-0.4-0.4s-0.4,0.2-0.4,0.4s0.2,0.4,0.4,0.4S9.1,12.3,9.1,12.1z"/>
<path class="st1" d="M7.9,14c-0.4,0-0.8-0.2-1.1-0.5c-0.2-0.2-0.2-0.5,0-0.7s0.5-0.2,0.7,0s0.5,0.2,0.8,0c0.2-0.2,0.5-0.2,0.7,0
	s0.2,0.5,0,0.7C8.7,13.8,8.3,14,7.9,14z"/>
<path class="st1" d="M10.5,16.1H9.4l-1.6,3.6l-1.6-3.6h-1c-2,0-3.6,1.6-3.6,3.6v9.4h12.6v-9.4C14.1,17.7,12.5,16.1,10.5,16.1z"/>
<path class="st1" d="M14.1,30H1.6c-0.5,0-0.9-0.4-0.9-0.9v-9.4c0-2.5,2-4.5,4.5-4.5h1.1c0.3,0,0.6,0.2,0.8,0.5l0.8,1.8l0.8-1.8
	c0.1-0.3,0.4-0.5,0.8-0.5h1.1c2.5,0,4.5,2,4.5,4.5v9.4C15,29.6,14.6,30,14.1,30z M2.4,28.3h10.8v-8.6c0-1.5-1.2-2.7-2.7-2.7H10
	l-1.4,3c-0.1,0.3-0.4,0.5-0.8,0.5l0,0c-0.3,0-0.6-0.2-0.8-0.5l-1.4-3H5.2c-1.5,0-2.7,1.2-2.7,2.7L2.4,28.3L2.4,28.3z"/>
<path class="st1" d="M7.9,20.5L7.9,20.5c-0.3,0-0.6-0.2-0.8-0.5l-1.6-3.6c-0.1-0.3-0.1-0.6,0.1-0.8s0.4-0.4,0.7-0.4h3.2
	c0.3,0,0.6,0.1,0.7,0.4c0.2,0.2,0.2,0.6,0.1,0.8L8.6,20C8.5,20.3,8.2,20.5,7.9,20.5z M7.6,17l0.3,0.6L8.1,17H7.6z"/>
<path class="st1" d="M7.9,43.5c-0.5,0-0.9-0.4-0.9-0.9V31.5c0-0.5,0.4-0.9,0.9-0.9s0.9,0.4,0.9,0.9v11.2C8.7,43.1,8.3,43.5,7.9,43.5
	z"/>
<rect x="37.3" y="28.5" class="st0" width="7.7" height="14.2"/>
<path class="st1" d="M45,43.5h-7.7c-0.5,0-0.9-0.4-0.9-0.9V28.5c0-0.5,0.4-0.9,0.9-0.9H45c0.5,0,0.9,0.4,0.9,0.9v14.2
	C45.9,43.1,45.5,43.5,45,43.5z M38.2,41.8h6V29.3h-6V41.8z"/>
<path class="st0" d="M44.1,12c0,1.8-1.3,3.3-2.9,3.3c-1.6,0-2.9-1.5-2.9-3.3s1.3-3.3,2.9-3.3C42.8,8.6,44.1,10.1,44.1,12z"/>
<path class="st1" d="M41.2,16.2c-2.1,0-3.8-1.9-3.8-4.2s1.7-4.2,3.8-4.2S45,9.7,45,12C44.9,14.3,43.3,16.2,41.2,16.2z M41.2,9.5
	c-1.1,0-2,1.1-2,2.5s0.9,2.5,2,2.5s2-1.1,2-2.5S42.3,9.5,41.2,9.5z"/>
<path class="st1" d="M41.2,8.6c-1.6,0-2.9,1.5-2.9,3.3c0.7-0.2,1.2-0.7,1.6-1.4c0.3,0.3,0.7,0.4,1.2,0.4H44
	C43.6,9.6,42.5,8.6,41.2,8.6z"/>
<path class="st1" d="M40.7,12.1c0-0.2-0.2-0.4-0.4-0.4s-0.4,0.2-0.4,0.4s0.2,0.4,0.4,0.4S40.7,12.3,40.7,12.1z"/>
<path class="st1" d="M42.5,12.1c0-0.2-0.2-0.4-0.4-0.4s-0.4,0.2-0.4,0.4s0.2,0.4,0.4,0.4S42.5,12.3,42.5,12.1z"/>
<path class="st1" d="M41.2,14c-0.4,0-0.8-0.2-1.1-0.5c-0.2-0.2-0.2-0.5,0-0.7s0.5-0.2,0.7,0s0.6,0.2,0.8,0s0.5-0.2,0.7,0
	s0.2,0.5,0,0.7C42,13.8,41.6,14,41.2,14z"/>
<path class="st1" d="M43.9,16.1h-1.1l-1.6,3.6l-1.6-3.6h-1.1c-2,0-3.6,1.6-3.6,3.6v9.4h12.6v-9.4C47.5,17.7,45.9,16.1,43.9,16.1z"/>
<path class="st1" d="M47.5,30H34.9c-0.5,0-0.9-0.4-0.9-0.9v-9.4c0-2.5,2-4.5,4.5-4.5h1.1c0.3,0,0.6,0.2,0.8,0.5l0.8,1.8l0.8-1.8
	c0.1-0.3,0.4-0.5,0.8-0.5h1.1c2.5,0,4.5,2,4.5,4.5v9.4C48.3,29.6,47.9,30,47.5,30z M35.8,28.3h10.8v-8.6c0-1.5-1.2-2.7-2.7-2.7h-0.5
	L42,20c-0.1,0.3-0.4,0.5-0.8,0.5l0,0c-0.3,0-0.6-0.2-0.8-0.5L39,17h-0.5c-1.5,0-2.7,1.2-2.7,2.7V28.3z"/>
<path class="st1" d="M41.2,20.5L41.2,20.5c-0.3,0-0.6-0.2-0.8-0.5l-1.6-3.6c-0.1-0.3-0.1-0.6,0.1-0.8c0.2-0.2,0.4-0.4,0.7-0.4h3.2
	c0.3,0,0.6,0.1,0.7,0.4c0.2,0.2,0.2,0.6,0.1,0.8L42,20C41.8,20.3,41.5,20.5,41.2,20.5z M40.9,17l0.3,0.6l0.3-0.6H40.9z"/>
<path class="st1" d="M41.2,43.5c-0.5,0-0.9-0.4-0.9-0.9V31.5c0-0.5,0.4-0.9,0.9-0.9s0.9,0.4,0.9,0.9v11.2
	C42,43.1,41.7,43.5,41.2,43.5z"/>
<path class="st2" d="M15.5,8.7c-0.5,0-0.9-0.4-0.9-0.9V4.1c0-0.5,0.4-0.9,0.9-0.9h3.7c0.5,0,0.9,0.4,0.9,0.9S19.6,5,19.2,5h-2.8v2.8
	C16.3,8.3,15.9,8.7,15.5,8.7z"/>
<path class="st2" d="M33.6,48h-3.7c-0.5,0-0.9-0.4-0.9-0.9s0.4-0.9,0.9-0.9h2.8v-2.8c0-0.5,0.4-0.9,0.9-0.9s0.9,0.4,0.9,0.9v3.7
	C34.4,47.6,34,48,33.6,48z"/>
<path class="st2" d="M33.6,8.7c-0.5,0-0.9-0.4-0.9-0.9V5h-2.8C29.4,5,29,4.6,29,4.1s0.4-0.9,0.9-0.9h3.7c0.5,0,0.9,0.4,0.9,0.9v3.7
	C34.4,8.3,34,8.7,33.6,8.7z"/>
<path class="st2" d="M19.2,48h-3.7c-0.5,0-0.9-0.4-0.9-0.9v-3.7c0-0.5,0.4-0.9,0.9-0.9c0.5,0,0.9,0.4,0.9,0.9v2.8h2.8
	c0.5,0,0.9,0.4,0.9,0.9C20,47.6,19.6,48,19.2,48z"/>
</svg>
