<?xml version="1.0" encoding="utf-8"?>
<!-- Generator: Adobe Illustrator 25.1.0, SVG Export Plug-In . SVG Version: 6.00 Build 0)  -->
<svg version="1.1" id="Layer_1" xmlns="http://www.w3.org/2000/svg" xmlns:xlink="http://www.w3.org/1999/xlink" x="0px" y="0px"
	 viewBox="0 0 50 50" style="enable-background:new 0 0 50 50;" xml:space="preserve">
<style type="text/css">
	.st0{fill:#EEEEEE;}
	.st1{fill:#FFFFFF;}
	.st2{fill:#333333;}
	.st3{fill:none;}
	.st4{fill:#104397;}
</style>
<circle class="st0" cx="24.8" cy="26" r="20.5"/>
<path class="st1" d="M43.9,22.4l-10-11.7l-2.8,2.4c-1.8-0.9-4.1-0.7-5.7,0.7l-9.8,8.4c-2.2,1.9-2.4,5.2-0.5,7.4l6.7,7.7
	c1.9,2.2,5.2,2.4,7.4,0.5l9.8-8.4c1.3-1.1,1.9-2.7,1.8-4.3L43.9,22.4z"/>
<path class="st2" d="M25.6,40.2L25.6,40.2c-1.8,0-3.5-0.8-4.6-2.1l-6.7-7.7c-1.1-1.2-1.6-2.8-1.5-4.4c0.1-1.6,0.9-3.1,2.1-4.2
	l9.8-8.4c1.1-1,2.5-1.5,4-1.5c0.7,0,1.5,0.1,2.2,0.4l2.4-2.1c0.4-0.3,0.9-0.3,1.2,0.1l10,11.7c0.2,0.2,0.2,0.4,0.2,0.6
	c0,0.2-0.1,0.4-0.3,0.6l-3,2.6c0,1.8-0.8,3.4-2.1,4.6l-9.8,8.4C28.5,39.6,27.1,40.2,25.6,40.2z M28.7,13.5c-1,0-2.1,0.4-2.8,1.1
	L16.1,23c-0.9,0.8-1.4,1.8-1.5,3c-0.1,1.2,0.3,2.3,1,3.2l6.7,7.7c0.8,1,2,1.5,3.3,1.5l0,0c1,0,2.1-0.4,2.8-1.1l9.8-8.4
	c1-0.9,1.6-2.2,1.5-3.6c0-0.3,0.1-0.5,0.3-0.7l2.7-2.3L33.8,12l-2.2,1.9c-0.3,0.2-0.6,0.3-1,0.1C30.1,13.7,29.4,13.5,28.7,13.5z"/>
<polygon class="st3" points="38.1,31.5 35.2,28.9 35.2,28.9 "/>
<path class="st1" d="M24.9,14.5l-0.6-0.5c-1.6-1.4-3.9-1.6-5.7-0.7l-2.8-2.4l-10,11.7L9,25.3c-0.1,1.6,0.5,3.2,1.8,4.3l9.3,8
	c0,0,0,0,0,0l4.9,4.3c0.9,0.8,2.2,0.7,3-0.2c0.6-0.7,0.7-1.7,0.2-2.4l0.2,0.2c0.9,0.8,2.2,0.7,3-0.2c0.6-0.7,0.7-1.7,0.2-2.4
	l0.2,0.2c0.9,0.8,2.2,0.7,3-0.2c0.6-0.7,0.7-1.7,0.2-2.4l0.3,0.2c0.9,0.8,2.2,0.7,3-0.2c0.8-0.9,0.7-2.2-0.2-3l-2.9-2.6l-9.8-8.8"/>
<path class="st2" d="M26.4,43.3c-0.7,0-1.4-0.3-1.9-0.7l-4.9-4.3c0,0,0,0,0,0l-9.3-8c-1.4-1.2-2.1-2.8-2.1-4.6l-3-2.6
	c-0.2-0.2-0.3-0.4-0.3-0.6c0-0.2,0.1-0.5,0.2-0.6l10-11.7c0.3-0.4,0.9-0.4,1.2-0.1l2.4,2.1c2.1-0.8,4.4-0.4,6.2,1.1l0.6,0.5
	c0.4,0.3,0.4,0.9,0.1,1.2c-0.3,0.4-0.9,0.4-1.2,0.1l-0.6-0.5c-1.3-1.1-3.2-1.4-4.8-0.6c-0.3,0.2-0.7,0.1-1-0.1L15.8,12L6.9,22.3
	l2.7,2.3c0.2,0.2,0.3,0.4,0.3,0.7c-0.1,1.4,0.5,2.7,1.5,3.6l9.3,8c0,0,0,0,0,0l4.9,4.2c0.2,0.2,0.6,0.3,0.9,0.3
	c0.3,0,0.6-0.2,0.8-0.4c0.3-0.4,0.4-1,0.1-1.4c-0.2-0.4-0.1-0.8,0.2-1.1c0.3-0.3,0.8-0.3,1.1,0l0.2,0.2c0.2,0.2,0.6,0.3,0.9,0.3
	c0.3,0,0.6-0.2,0.8-0.4c0.3-0.4,0.4-1,0.1-1.4c-0.2-0.4-0.1-0.8,0.2-1.1c0.3-0.3,0.8-0.3,1.1,0l0.2,0.2c0.2,0.2,0.6,0.3,0.9,0.3
	c0.3,0,0.6-0.2,0.8-0.4c0.3-0.4,0.4-1,0.1-1.4c-0.2-0.4-0.1-0.8,0.2-1.1c0.3-0.3,0.8-0.3,1.1,0l0.3,0.2c0.5,0.4,1.3,0.4,1.7-0.1
	c0.4-0.5,0.4-1.3-0.1-1.7L24.8,20.7c-0.4-0.3-0.4-0.9-0.1-1.2c0.3-0.4,0.9-0.4,1.2-0.1l12.7,11.4c1.2,1.1,1.4,2.9,0.3,4.2
	c-0.7,0.8-1.8,1.2-2.8,1c-0.1,0.5-0.3,1-0.7,1.4c-0.5,0.6-1.2,1-2,1c-0.2,0-0.5,0-0.7,0c-0.1,0.5-0.3,1-0.7,1.4c-0.5,0.6-1.2,1-2,1
	c-0.2,0-0.5,0-0.7,0c-0.1,0.5-0.3,1-0.7,1.4c-0.5,0.6-1.2,1-2,1C26.6,43.3,26.5,43.3,26.4,43.3z"/>
<polygon class="st4" points="1.4,20.1 5.9,24.1 17.4,10.7 13,6.6 "/>
<path class="st4" d="M5.9,25c-0.2,0-0.4-0.1-0.6-0.2l-4.4-4.1c-0.3-0.3-0.4-0.9-0.1-1.2L12.4,6.1c0.2-0.2,0.4-0.3,0.6-0.3
	c0.2,0,0.5,0.1,0.6,0.2l4.4,4.1c0.3,0.3,0.4,0.9,0.1,1.2L6.5,24.7C6.4,24.9,6.2,25,5.9,25C5.9,25,5.9,25,5.9,25z M2.7,20l3.1,2.9
	l10.4-12.1l-3.1-2.9L2.7,20z"/>
<polygon class="st4" points="48.1,20.1 43.7,24.1 32.1,10.7 36.6,6.6 "/>
<path class="st4" d="M43.7,25C43.7,25,43.7,25,43.7,25c-0.3,0-0.5-0.1-0.7-0.3L31.5,11.3c-0.3-0.4-0.3-0.9,0.1-1.2L36,6
	c0.2-0.2,0.4-0.2,0.6-0.2c0.2,0,0.5,0.1,0.6,0.3l11.6,13.4c0.3,0.4,0.3,0.9-0.1,1.2l-4.4,4.1C44.1,24.9,43.9,25,43.7,25z M33.3,10.8
	l10.4,12.1l3.1-2.9L36.5,7.9L33.3,10.8z"/>
<path class="st1" d="M25.2,14.2l-7,5.9c-1.2,1-1.3,2.7-0.3,3.9c1,1.2,2.7,1.3,3.9,0.3l4.6-4c1.1,1.3,3.5,3.1,7.7,2.3"/>
<path class="st2" d="M20,25.8c-0.1,0-0.2,0-0.3,0c-1-0.1-1.9-0.5-2.5-1.3c-0.6-0.7-0.9-1.7-0.9-2.6c0.1-1,0.5-1.9,1.3-2.5l7-5.9
	c0.4-0.3,0.9-0.3,1.2,0.1c0.3,0.4,0.3,0.9-0.1,1.2l-7,5.9c-0.4,0.3-0.6,0.8-0.6,1.3c0,0.5,0.1,1,0.5,1.4c0.3,0.4,0.8,0.6,1.3,0.7
	c0.5,0,1-0.1,1.4-0.5l4.6-4c0.4-0.3,0.9-0.3,1.2,0.1c1.1,1.3,3.2,2.7,6.9,2c0.5-0.1,0.9,0.2,1,0.7c0.1,0.5-0.2,0.9-0.7,1
	c-4,0.7-6.5-0.7-7.9-2l-4,3.4C21.7,25.5,20.9,25.8,20,25.8z"/>
<path class="st1" d="M29.7,34.7c0.8,0.9,0.7,2.2-0.2,3l-4.9,4.3c-0.9,0.8-2.2,0.7-3-0.2l0,0c-0.8-0.9-0.7-2.2,0.2-3l4.9-4.3
	C27.6,33.7,29,33.8,29.7,34.7L29.7,34.7z"/>
<path class="st2" d="M23.2,43.3c-0.9,0-1.7-0.4-2.2-1c-0.5-0.6-0.8-1.4-0.7-2.2c0.1-0.8,0.4-1.5,1-2l4.9-4.3
	c0.5-0.5,1.2-0.7,1.9-0.7c0.9,0,1.7,0.4,2.2,1c0.5,0.6,0.8,1.4,0.7,2.2c-0.1,0.8-0.4,1.5-1,2l-4.9,4.3C24.6,43,23.9,43.3,23.2,43.3z
	 M28.1,34.8c-0.3,0-0.6,0.1-0.8,0.3l-4.9,4.3c-0.2,0.2-0.4,0.5-0.4,0.8c0,0.3,0.1,0.6,0.3,0.9c0.4,0.5,1.2,0.6,1.7,0.1l4.9-4.3
	c0.5-0.4,0.6-1.2,0.1-1.7C28.8,35,28.5,34.8,28.1,34.8z"/>
<path class="st1" d="M26.3,32.3c0.8,0.9,0.7,2.2-0.2,3l-4.9,4.3c-0.9,0.8-2.2,0.7-3-0.2l0,0c-0.8-0.9-0.7-2.2,0.2-3l4.9-4.3
	C24.2,31.3,25.5,31.4,26.3,32.3L26.3,32.3z"/>
<path class="st2" d="M19.8,40.9c-0.9,0-1.7-0.4-2.2-1c-1.1-1.2-0.9-3.1,0.3-4.2l4.9-4.3c0.5-0.5,1.2-0.7,1.9-0.7
	c0.9,0,1.7,0.4,2.2,1c1.1,1.2,0.9,3.1-0.3,4.2l-4.9,4.3C21.1,40.6,20.5,40.9,19.8,40.9z M24.7,32.4c-0.3,0-0.6,0.1-0.8,0.3L19,37
	c-0.5,0.4-0.6,1.2-0.1,1.7c0.4,0.5,1.2,0.6,1.7,0.1l4.9-4.3c0.5-0.4,0.6-1.2,0.1-1.7C25.4,32.6,25,32.4,24.7,32.4z"/>
<path class="st1" d="M22.8,29.9c0.8,0.9,0.7,2.2-0.2,3l-4.9,4.3c-0.9,0.8-2.2,0.7-3-0.2l0,0c-0.8-0.9-0.7-2.2,0.2-3l4.9-4.3
	C20.8,28.9,22.1,29,22.8,29.9L22.8,29.9z"/>
<path class="st2" d="M16.3,38.5c-0.9,0-1.7-0.4-2.2-1c-0.5-0.6-0.8-1.4-0.7-2.2c0.1-0.8,0.4-1.5,1-2l4.9-4.3
	c0.5-0.5,1.2-0.7,1.9-0.7c0.9,0,1.7,0.4,2.2,1c1.1,1.2,0.9,3.1-0.3,4.2l-4.9,4.3C17.7,38.2,17,38.5,16.3,38.5z M21.3,30
	c-0.3,0-0.6,0.1-0.8,0.3l-4.9,4.3c-0.2,0.2-0.4,0.5-0.4,0.8c0,0.3,0.1,0.6,0.3,0.9c0.4,0.5,1.2,0.6,1.7,0.1l4.9-4.3
	c0.5-0.4,0.6-1.2,0.1-1.7C22,30.2,21.6,30,21.3,30z"/>
<path class="st1" d="M19.4,27.5c0.8,0.9,0.7,2.2-0.2,3l-4.9,4.3c-0.9,0.8-2.2,0.7-3-0.2l0,0c-0.8-0.9-0.7-2.2,0.2-3l4.9-4.3
	C17.3,26.5,18.7,26.6,19.4,27.5L19.4,27.5z"/>
<path class="st2" d="M12.9,36c-0.9,0-1.7-0.4-2.2-1c-1.1-1.2-0.9-3.1,0.3-4.2l4.9-4.3c0.5-0.5,1.2-0.7,1.9-0.7c0.9,0,1.7,0.4,2.2,1
	c0.5,0.6,0.8,1.4,0.7,2.2c-0.1,0.8-0.4,1.5-1,2l-4.9,4.3C14.3,35.8,13.6,36,12.9,36z M17.8,27.6c-0.3,0-0.6,0.1-0.8,0.3l-4.9,4.3
	c-0.5,0.4-0.6,1.2-0.1,1.7c0.4,0.5,1.2,0.6,1.7,0.1l4.9-4.3c0.2-0.2,0.4-0.5,0.4-0.8c0-0.3-0.1-0.6-0.3-0.9
	C18.5,27.8,18.2,27.6,17.8,27.6z"/>
</svg>
