<?xml version="1.0" encoding="utf-8"?>
<!-- Generator: Adobe Illustrator 25.1.0, SVG Export Plug-In . SVG Version: 6.00 Build 0)  -->
<svg version="1.1" id="Layer_1" xmlns="http://www.w3.org/2000/svg" xmlns:xlink="http://www.w3.org/1999/xlink" x="0px" y="0px"
	viewBox="0 0 50 50" style="enable-background:new 0 0 50 50;" xml:space="preserve">
<style type="text/css">
	.st0{fill:#FFFFFF;}
	.st1{fill:#333333;}
	.st2{fill:#104397;}
</style>
<path class="st0" d="M30.3,12.1c0,3.4-2.4,6.2-5.4,6.2s-5.4-2.8-5.4-6.2c0-3.4,2.4-6.2,5.4-6.2S30.3,8.7,30.3,12.1z"/>
<path class="st1" d="M25,19.2c-3.5,0-6.3-3.2-6.3-7.1c0-3.9,2.8-7.1,6.3-7.1c3.5,0,6.3,3.2,6.3,7.1C31.2,16.1,28.4,19.2,25,19.2z
	M25,6.8c-2.5,0-4.5,2.4-4.5,5.3c0,2.9,2,5.3,4.5,5.3s4.5-2.4,4.5-5.3C29.5,9.2,27.4,6.8,25,6.8z"/>
<path class="st1" d="M25,5.9c-2.9,0-5.3,2.7-5.4,6.1c1.2-0.4,2.2-1.4,2.9-2.6c0.6,0.5,1.4,0.8,2.2,0.8h5.4C29.4,7.7,27.4,5.9,25,5.9
	z"/>
<path class="st1" d="M24,12.4c0-0.4-0.3-0.7-0.7-0.7c-0.4,0-0.7,0.3-0.7,0.7c0,0.4,0.3,0.7,0.7,0.7C23.7,13.1,24,12.8,24,12.4z"/>
<path class="st1" d="M27.4,12.4c0-0.4-0.3-0.7-0.7-0.7c-0.4,0-0.7,0.3-0.7,0.7c0,0.4,0.3,0.7,0.7,0.7C27,13.1,27.4,12.8,27.4,12.4z"
	/>
<path class="st1" d="M25,15.8c-0.7,0-1.5-0.3-2-0.8c-0.3-0.3-0.3-0.9,0-1.2s0.9-0.3,1.2,0c0.4,0.4,1.1,0.4,1.5,0
	c0.3-0.3,0.9-0.3,1.2,0c0.3,0.3,0.3,0.9,0,1.2C26.4,15.6,25.7,15.8,25,15.8z"/>
<path class="st1" d="M29.9,19.9h-2.1L25,26.5L22,19.9H20c-3.7,0-6.7,3-6.7,6.7v2.1h23.4v-2.1C36.6,22.8,33.6,19.9,29.9,19.9z"/>
<path class="st1" d="M36.6,29.5H13.3c-0.5,0-0.9-0.4-0.9-0.9v-2.1c0-4.2,3.4-7.6,7.6-7.6H22c0.3,0,0.7,0.2,0.8,0.5l2.1,4.8l2.1-4.8
	c0.1-0.3,0.5-0.5,0.8-0.5h2.1c4.2,0,7.6,3.4,7.6,7.6v2.1C37.5,29.1,37.1,29.5,36.6,29.5z M14.2,27.8h21.6v-1.2
	c0-3.2-2.6-5.8-5.8-5.8h-1.5l-2.7,6.1c-0.1,0.3-0.5,0.5-0.8,0.5l0,0c-0.3,0-0.7-0.2-0.8-0.5l-2.7-6.1H20c-3.2,0-5.8,2.6-5.8,5.8
	V27.8z"/>
<path class="st1" d="M25,27.3L25,27.3c-0.3,0-0.7-0.2-0.8-0.5l-2.9-6.6c-0.1-0.3-0.1-0.6,0.1-0.8c0.2-0.2,0.4-0.4,0.7-0.4h5.9
	c0.3,0,0.6,0.2,0.7,0.4c0.2,0.2,0.2,0.6,0.1,0.8l-2.9,6.6C25.6,27.1,25.3,27.3,25,27.3z M23.4,20.7l1.6,3.6l1.6-3.6H23.4z"/>
<path class="st0" d="M44,20.6c-2-0.5-2.1,2.8-2.1,2.8l-0.5,3.9c0,0-0.2,1.7-1.3,2.8l0,0c0.3-0.6,0.4-1.4-0.5-2.1
	c-1.6-1.3-2.7,0.3-2.7,0.3l-5.8,5.8c-4,4-1.7,9.4-1.7,9.4l7.3,0.1c0,0-0.2-1.9,1.7-3.8l4.6-4.6c0,0,2.4-1.9,2.5-6.3l0.2-6.2
	C45.7,22.8,46.1,21.1,44,20.6z"/>
<path class="st1" d="M29.4,44.4c-0.3,0-0.7-0.2-0.8-0.5c-0.1-0.2-2.5-6,1.9-10.4l5.8-5.8c0.2-0.2,0.8-0.9,1.8-1.1
	c0.5-0.1,1.3,0,2.1,0.7c0.8,0.6,1,1.3,1,1.8c0.1,1.3-0.9,2.3-1,2.4L36,35.7c-0.3,0.3-0.9,0.3-1.2,0c-0.3-0.3-0.3-0.9,0-1.2l4.2-4.2
	c0.1-0.1,0.5-0.6,0.5-1.1c0-0.1-0.1-0.3-0.3-0.5c-0.3-0.2-0.5-0.3-0.7-0.3c-0.3,0-0.6,0.3-0.7,0.4c0,0-0.1,0.1-0.1,0.1l-5.8,5.8
	c-3.5,3.5-1.6,8.4-1.5,8.5c0.2,0.4,0,1-0.5,1.1C29.6,44.4,29.5,44.4,29.4,44.4z"/>
<path class="st1" d="M36.7,44.5c-0.5,0-0.8-0.3-0.9-0.8c0-0.1-0.2-2.3,2-4.5l4.6-4.6c0,0,0,0,0.1-0.1c0.1-0.1,2-1.7,2.2-5.6l0.2-6.2
	c0,0,0-0.1,0-0.1c0-0.3,0-1-1-1.2c-0.3-0.1-0.4,0-0.4,0.1c-0.4,0.3-0.6,1.3-0.6,1.9c0,0,0,0.1,0,0.1l-0.5,3.9c0,0.1-0.2,2-1.6,3.3
	c-0.3,0.3-0.9,0.3-1.2,0c-0.3-0.3-0.3-0.9,0-1.2c0.9-0.9,1.1-2.3,1.1-2.3l0.5-3.9c0-0.4,0.1-2.3,1.3-3.2c0.4-0.3,1-0.6,1.9-0.4
	c2.1,0.5,2.5,2.1,2.4,3.2L46.4,29c-0.2,4.5-2.4,6.6-2.8,6.9l-4.5,4.5c-1.5,1.5-1.5,3-1.5,3.1C37.6,44,37.2,44.4,36.7,44.5
	C36.7,44.5,36.7,44.5,36.7,44.5z"/>
<rect x="28.3" y="43.3" class="st2" width="9.3" height="4.8"/>
<path class="st2" d="M37.6,49h-9.3c-0.5,0-0.9-0.4-0.9-0.9v-4.8c0-0.5,0.4-0.9,0.9-0.9h9.3c0.2,0,0.5,0.1,0.6,0.3
	c0.2,0.2,0.3,0.4,0.3,0.6l0,4.8C38.5,48.6,38.1,49,37.6,49z M29.1,47.2h7.6l0-3h-7.6V47.2z"/>
<path class="st0" d="M5.9,20.6c2-0.5,2.1,2.8,2.1,2.8l0.5,3.9c0,0,0.2,1.7,1.3,2.8l0,0c-0.3-0.6-0.4-1.4,0.5-2.1
	c1.6-1.3,2.7,0.3,2.7,0.3l5.8,5.8c4,4,1.7,9.4,1.7,9.4l-7.3,0.1c0,0,0.2-1.9-1.7-3.8l-4.6-4.6c0,0-2.4-1.9-2.5-6.3l-0.2-6.2
	C4.2,22.8,3.9,21.1,5.9,20.6z"/>
<path class="st1" d="M20.5,44.4c-0.1,0-0.2,0-0.3-0.1c-0.4-0.2-0.7-0.7-0.5-1.1c0.1-0.2,2-4.9-1.5-8.5l-5.8-5.8c0,0-0.1-0.1-0.1-0.1
	c-0.1-0.1-0.3-0.4-0.7-0.4c-0.2,0-0.5,0.1-0.7,0.3c-0.3,0.2-0.3,0.4-0.3,0.5c0,0.4,0.4,0.9,0.5,1.1l4.2,4.2c0.3,0.3,0.3,0.9,0,1.2
	c-0.3,0.3-0.9,0.3-1.2,0l-4.2-4.2c-0.1-0.1-1.1-1.1-1-2.4c0-0.5,0.2-1.2,1-1.8c0.8-0.7,1.6-0.7,2.1-0.7c1,0.1,1.6,0.8,1.8,1.1
	l5.8,5.8c4.4,4.4,2,10.1,1.9,10.4C21.2,44.2,20.9,44.4,20.5,44.4z"/>
<path class="st1" d="M13.2,44.5C13.2,44.5,13.2,44.5,13.2,44.5c-0.6,0-0.9-0.5-0.9-0.9c0-0.1,0.1-1.6-1.5-3.1l-4.5-4.5
	C6,35.6,3.7,33.5,3.5,29l-0.2-6.1c-0.2-1.1,0.3-2.7,2.4-3.2c0.9-0.2,1.5,0.1,1.9,0.4c1.1,0.9,1.3,2.8,1.3,3.2l0.5,3.9
	c0,0,0.2,1.4,1.1,2.3c0.3,0.3,0.3,0.9,0,1.2c-0.3,0.3-0.9,0.3-1.2,0c-1.4-1.4-1.6-3.3-1.6-3.4l-0.5-3.9c0,0,0-0.1,0-0.1
	c0-0.6-0.2-1.6-0.6-1.9c-0.1,0-0.2-0.1-0.4-0.1c-1.1,0.2-1.1,0.9-1,1.2c0,0,0,0.1,0,0.1L5.3,29c0.1,3.9,2.2,5.6,2.2,5.6
	c0,0,0,0,0.1,0.1l4.6,4.6c2.1,2.1,2,4.4,2,4.5C14,44.1,13.7,44.5,13.2,44.5z"/>
<rect x="12.3" y="43.3" class="st2" width="9.3" height="4.8"/>
<path class="st2" d="M21.6,49h-9.3c-0.5,0-0.9-0.4-0.9-0.9v-4.8c0-0.5,0.4-0.9,0.9-0.9h9.3c0.5,0,0.9,0.4,0.9,0.9v4.8
	C22.5,48.6,22.1,49,21.6,49z M13.2,47.2h7.6v-3h-7.6V47.2z"/>
</svg>
