<?xml version="1.0" encoding="utf-8"?>
<!-- Generator: Adobe Illustrator 25.1.0, SVG Export Plug-In . SVG Version: 6.00 Build 0)  -->
<svg version="1.1" id="Layer_1" xmlns="http://www.w3.org/2000/svg" xmlns:xlink="http://www.w3.org/1999/xlink" x="0px" y="0px"
	 viewBox="0 0 50 50" style="enable-background:new 0 0 50 50;" xml:space="preserve">
<style type="text/css">
	.st0{fill:#FFFFFF;}
	.st1{fill:#333333;}
	.st2{fill:#104397;}
</style>
<path class="st0" d="M24.7,8.5c-4.8,0-8.7,3.9-8.7,8.7c0,2.2,0.8,4.2,2.2,5.8c0.5,0.7,2.7,4,2.7,6.7h7.6c0-2.9,2.5-6.4,2.8-6.8
	c1.3-1.5,2.1-3.5,2.1-5.7C33.3,12.4,29.5,8.5,24.7,8.5z"/>
<path class="st1" d="M28.4,30.5h-7.6c-0.5,0-0.9-0.4-0.9-0.9c0-2.4-2-5.5-2.5-6.2c-1.5-1.7-2.4-4-2.4-6.3c0-5.3,4.3-9.5,9.5-9.5
	s9.5,4.3,9.5,9.5c0,2.3-0.8,4.5-2.3,6.2c-0.3,0.4-2.6,3.7-2.6,6.3C29.3,30.1,28.9,30.5,28.4,30.5z M21.7,28.8h6
	c0.4-3,2.6-6.1,2.9-6.5c0,0,0,0,0-0.1c1.2-1.4,1.9-3.2,1.9-5.1c0-4.3-3.5-7.8-7.8-7.8s-7.8,3.5-7.8,7.8c0,1.9,0.7,3.7,2,5.2
	c0,0,0,0.1,0.1,0.1C19.5,23.3,21.3,26.1,21.7,28.8z"/>
<path class="st1" d="M29.2,30.5h-9.1c-0.5,0-0.9-0.4-0.9-0.9s0.4-0.9,0.9-0.9h9.1c0.5,0,0.9,0.4,0.9,0.9S29.7,30.5,29.2,30.5z"/>
<path class="st1" d="M29.2,32.9h-9.1c-0.5,0-0.9-0.4-0.9-0.9s0.4-0.9,0.9-0.9h9.1c0.5,0,0.9,0.4,0.9,0.9S29.7,32.9,29.2,32.9z"/>
<path class="st2" d="M12.5,18.2H9.2c-0.5,0-0.9-0.4-0.9-0.9s0.4-0.9,0.9-0.9h3.4c0.5,0,0.9,0.4,0.9,0.9S13,18.2,12.5,18.2z"/>
<path class="st2" d="M40.2,18.2h-3.4c-0.5,0-0.9-0.4-0.9-0.9s0.4-0.9,0.9-0.9h3.4c0.5,0,0.9,0.4,0.9,0.9S40.6,18.2,40.2,18.2z"/>
<path class="st2" d="M16.1,9.6c-0.2,0-0.4-0.1-0.6-0.3l-2.4-2.4c-0.3-0.3-0.3-0.9,0-1.2s0.9-0.3,1.2,0l2.4,2.4C17,8.4,17,9,16.7,9.3
	C16.5,9.5,16.3,9.6,16.1,9.6z"/>
<path class="st2" d="M35.6,29.1c-0.2,0-0.4-0.1-0.6-0.3l-2.4-2.4c-0.3-0.3-0.3-0.9,0-1.2c0.3-0.3,0.9-0.3,1.2,0l2.4,2.4
	c0.3,0.3,0.3,0.9,0,1.2C36.1,29,35.9,29.1,35.6,29.1z"/>
<path class="st2" d="M33.3,9.6c-0.2,0-0.4-0.1-0.6-0.3c-0.3-0.3-0.3-0.9,0-1.2L35,5.7c0.3-0.3,0.9-0.3,1.2,0s0.3,0.9,0,1.2l-2.4,2.4
	C33.7,9.5,33.5,9.6,33.3,9.6z"/>
<path class="st2" d="M13.7,29.1c-0.2,0-0.4-0.1-0.6-0.3c-0.3-0.3-0.3-0.9,0-1.2l2.4-2.4c0.3-0.3,0.9-0.3,1.2,0
	c0.3,0.3,0.3,0.9,0,1.2l-2.4,2.4C14.2,29,13.9,29.1,13.7,29.1z"/>
<path class="st2" d="M24.7,6c-0.5,0-0.9-0.4-0.9-0.9V1.8c0-0.5,0.4-0.9,0.9-0.9s0.9,0.4,0.9,0.9v3.4C25.5,5.6,25.2,6,24.7,6z"/>
<path class="st1" d="M33.4,32.8h-3.6l-5.1,11.5l-5.1-11.5H16C9.5,32.8,4.3,38,4.3,44.4v3.7H45v-3.7C45,38,39.8,32.8,33.4,32.8z"/>
<path class="st1" d="M45,49H4.3c-0.5,0-0.9-0.4-0.9-0.9v-3.7c0-6.9,5.6-12.5,12.5-12.5h3.6c0.3,0,0.7,0.2,0.8,0.5l4.3,9.7l4.3-9.7
	c0.1-0.3,0.4-0.5,0.8-0.5h3.6c6.9,0,12.5,5.6,12.5,12.5v3.7C45.9,48.6,45.5,49,45,49z M5.2,47.3h39v-2.8c0-5.9-4.8-10.8-10.8-10.8
	h-3l-4.9,11c-0.1,0.3-0.4,0.5-0.8,0.5c-0.3,0-0.7-0.2-0.8-0.5l-4.9-11h-3c-5.9,0-10.8,4.8-10.8,10.8C5.2,44.5,5.2,47.3,5.2,47.3z"/>
<path class="st2" d="M29.9,17.4c-0.4,0-0.7-0.3-0.8-0.6c-0.7-2.4-1.8-2.9-1.8-2.9c-0.5-0.2-0.7-0.6-0.5-1.1s0.7-0.7,1.1-0.5
	c0.2,0.1,2,0.7,2.9,4.1c0.1,0.5-0.1,0.9-0.6,1.1C30.1,17.4,30,17.4,29.9,17.4z"/>
</svg>
